<svg xmlns="http://www.w3.org/2000/svg" width="1200" height="675" viewBox="0 0 1200 675">
  <defs>
    <linearGradient id="bg9" x1="0" y1="0" x2="1" y2="1">
      <stop offset="0" stop-color="#0b1020"/>
      <stop offset="1" stop-color="#131c3a"/>
    </linearGradient>
    <linearGradient id="accent9" x1="0" y1="0" x2="1" y2="0">
      <stop offset="0" stop-color="#00E5FF"/>
      <stop offset="1" stop-color="#7C4DFF"/>
    </linearGradient>
    <filter id="shadow9" x="-20%" y="-20%" width="140%" height="140%">
      <feDropShadow dx="0" dy="12" stdDeviation="12" flood-color="#000" flood-opacity="0.38"/>
    </filter>
    <clipPath id="r9">
      <rect x="0" y="0" width="480" height="270" rx="8"/>
    </clipPath>
  </defs>

  <rect width="1200" height="675" fill="url(#bg9)"/>

  <!-- stacked pages -->
  <g filter="url(#shadow9)">
    <!-- page 1: contents -->
    <g transform="translate(80,82)">
      <rect width="480" height="270" rx="8" fill="#f8fafc"/>
      <g clip-path="url(#r9)">
        <image href="https://images.pexels.com/photos/35753334/pexels-photo-35753334.jpeg?auto=compress&amp;cs=tinysrgb&amp;w=1200" x="-10" y="-30" width="520" height="340" preserveAspectRatio="xMidYMid slice" opacity="0.18"/>
      </g>
      <rect x="0" y="0" width="480" height="20" fill="#111827"/>
      <text x="18" y="52" fill="#1f2937" font-size="18" font-family="Arial">&#30446;&#24405;</text>
      <rect x="18" y="72" width="190" height="3" fill="#00E5FF"/>
      <rect x="24" y="98" width="12" height="12" fill="#00E5FF"/>
      <rect x="24" y="124" width="12" height="12" fill="#7C4DFF"/>
      <rect x="24" y="150" width="12" height="12" fill="#00E5FF"/>
      <text x="48" y="109" fill="#334155" font-size="12" font-family="Arial">&#30446;&#24405;&#39033; 01</text>
      <text x="48" y="135" fill="#334155" font-size="12" font-family="Arial">&#30446;&#24405;&#39033; 02</text>
      <text x="48" y="161" fill="#334155" font-size="12" font-family="Arial">&#30446;&#24405;&#39033; 03</text>
    </g>

    <!-- page 2: transition -->
    <g transform="translate(550,102)">
      <rect width="480" height="270" rx="8" fill="#e2e8f0"/>
      <g clip-path="url(#r9)">
        <image href="https://images.pexels.com/photos/28860864/pexels-photo-28860864.jpeg?auto=compress&amp;cs=tinysrgb&amp;w=1200" x="-20" y="-24" width="530" height="330" preserveAspectRatio="xMidYMid slice" opacity="0.20"/>
      </g>
      <rect x="0" y="0" width="480" height="22" fill="#0f172a"/>
      <rect x="28" y="86" width="424" height="98" rx="6" fill="#0f172a" fill-opacity="0.82"/>
      <text x="240" y="128" text-anchor="middle" fill="#e2e8f0" font-size="21" font-family="Arial">&#36807;&#28193;&#39029;&#26631;&#39064;</text>
      <text x="240" y="152" text-anchor="middle" fill="#94a3b8" font-size="11" font-family="Arial">&#23567;&#33410;&#32467;&#26500;&#20999;&#25442;</text>
      <rect x="180" y="168" width="120" height="4" fill="url(#accent9)"/>
    </g>

    <!-- page 3: cover (center) -->
    <g transform="translate(210,214)">
      <rect width="560" height="314" rx="10" fill="#f8fafc"/>
      <g clip-path="url(#r9)">
        <image href="https://images.pexels.com/photos/35753334/pexels-photo-35753334.jpeg?auto=compress&amp;cs=tinysrgb&amp;w=1200" x="-28" y="-42" width="640" height="390" preserveAspectRatio="xMidYMid slice" opacity="0.26"/>
      </g>
      <rect x="0" y="0" width="560" height="24" fill="#0f172a"/>
      <rect x="24" y="58" width="8" height="156" fill="url(#accent9)"/>
      <text x="50" y="108" fill="#0f172a" font-size="34" font-family="Arial">&#23553;&#38754;&#26631;&#39064;</text>
      <text x="50" y="136" fill="#475569" font-size="13" font-family="Arial">&#31185;&#25216;&#38662;&#34425;&#39118;&#26684;</text>
      <rect x="50" y="150" width="300" height="4" fill="url(#accent9)"/>
      <text x="410" y="272" fill="#475569" font-size="12" font-family="Arial">&#27719;&#25253;&#20154;&#65306;XXX</text>
      <text x="410" y="292" fill="#64748b" font-size="10" font-family="Arial">2026-02-25</text>
    </g>

    <!-- page 4: content -->
    <g transform="translate(710,250)">
      <rect width="360" height="220" rx="8" fill="#f8fafc"/>
      <g clip-path="url(#r9)">
        <image href="https://images.pexels.com/photos/28860864/pexels-photo-28860864.jpeg?auto=compress&amp;cs=tinysrgb&amp;w=1200" x="-10" y="-40" width="420" height="300" preserveAspectRatio="xMidYMid slice" opacity="0.18"/>
      </g>
      <rect x="0" y="0" width="360" height="18" fill="#111827"/>
      <text x="18" y="46" fill="#1f2937" font-size="16" font-family="Arial">&#20869;&#23481;&#39029;&#26631;&#39064;</text>
      <rect x="18" y="54" width="140" height="3" fill="url(#accent9)"/>
      <rect x="22" y="74" width="150" height="62" rx="4" fill="#0f172a" fill-opacity="0.80"/>
      <rect x="186" y="74" width="150" height="62" rx="4" fill="#0f172a" fill-opacity="0.80"/>
      <text x="97" y="111" text-anchor="middle" fill="#cbd5e1" font-size="11" font-family="Arial">&#32467;&#35770; A</text>
      <text x="261" y="111" text-anchor="middle" fill="#cbd5e1" font-size="11" font-family="Arial">&#32467;&#35770; B</text>
    </g>

    <!-- page 5: end -->
    <g transform="translate(300,322)">
      <rect width="500" height="286" rx="8" fill="#f8fafc"/>
      <g clip-path="url(#r9)">
        <image href="https://images.pexels.com/photos/28860864/pexels-photo-28860864.jpeg?auto=compress&amp;cs=tinysrgb&amp;w=1200" x="-20" y="-80" width="560" height="400" preserveAspectRatio="xMidYMid slice" opacity="0.24"/>
      </g>
      <rect x="0" y="0" width="500" height="20" fill="#0f172a"/>
      <rect x="0" y="20" width="500" height="266" fill="#0f172a" fill-opacity="0.62"/>
      <text x="250" y="154" text-anchor="middle" fill="#ffffff" font-size="46" font-family="Arial">&#24863;&#35874;&#35266;&#30475;</text>
      <rect x="170" y="170" width="160" height="4" fill="url(#accent9)"/>
      <text x="250" y="202" text-anchor="middle" fill="#cbd5e1" font-size="13" font-family="Arial">&#27719;&#25253;&#20154;&#65306;XXX</text>
    </g>
  </g>
</svg>
