<svg xmlns="http://www.w3.org/2000/svg" width="1200" height="675" viewBox="0 0 1200 675">
  <defs>
    <linearGradient id="bg10" x1="0" y1="0" x2="1" y2="1">
      <stop offset="0" stop-color="#FFFBF3"/>
      <stop offset="1" stop-color="#FFF3E0"/>
    </linearGradient>
    <linearGradient id="accent10" x1="0" y1="0" x2="1" y2="0">
      <stop offset="0" stop-color="#D97706"/>
      <stop offset="1" stop-color="#F59E0B"/>
    </linearGradient>
    <filter id="shadow10" x="-20%" y="-20%" width="140%" height="140%">
      <feDropShadow dx="0" dy="10" stdDeviation="10" flood-color="#000" flood-opacity="0.20"/>
    </filter>
    <clipPath id="r10">
      <rect x="0" y="0" width="480" height="270" rx="8"/>
    </clipPath>
  </defs>

  <rect width="1200" height="675" fill="url(#bg10)"/>

  <!-- stacked pages -->
  <g filter="url(#shadow10)">
    <!-- page 1: contents -->
    <g transform="translate(84,84)">
      <rect width="480" height="270" rx="8" fill="#f8f5ef"/>
      <g clip-path="url(#r10)">
        <image href="https://images.pexels.com/photos/5993559/pexels-photo-5993559.jpeg?auto=compress&amp;cs=tinysrgb&amp;w=1200" x="-20" y="-40" width="540" height="360" preserveAspectRatio="xMidYMid slice" opacity="0.30"/>
      </g>
      <rect x="0" y="0" width="480" height="20" fill="#8b5a2b" fill-opacity="0.85"/>
      <text x="18" y="52" fill="#4b2e1f" font-size="18" font-family="Arial">&#30446;&#24405;</text>
      <rect x="18" y="72" width="190" height="3" fill="url(#accent10)"/>
      <rect x="24" y="98" width="11" height="11" fill="#D97706"/>
      <rect x="24" y="124" width="11" height="11" fill="#F59E0B"/>
      <rect x="24" y="150" width="11" height="11" fill="#D97706"/>
      <text x="48" y="109" fill="#6b4b2f" font-size="12" font-family="Arial">&#30446;&#24405;&#39033; 01</text>
      <text x="48" y="135" fill="#6b4b2f" font-size="12" font-family="Arial">&#30446;&#24405;&#39033; 02</text>
      <text x="48" y="161" fill="#6b4b2f" font-size="12" font-family="Arial">&#30446;&#24405;&#39033; 03</text>
    </g>

    <!-- page 2: transition -->
    <g transform="translate(552,110)">
      <rect width="480" height="270" rx="8" fill="#f7f1e6"/>
      <g clip-path="url(#r10)">
        <image href="https://images.pexels.com/photos/4252168/pexels-photo-4252168.jpeg?auto=compress&amp;cs=tinysrgb&amp;w=1200" x="-18" y="-36" width="530" height="350" preserveAspectRatio="xMidYMid slice" opacity="0.28"/>
      </g>
      <rect x="0" y="0" width="480" height="22" fill="#8b5a2b" fill-opacity="0.88"/>
      <rect x="28" y="86" width="424" height="98" rx="6" fill="#fffaf0" fill-opacity="0.88"/>
      <text x="240" y="128" text-anchor="middle" fill="#5b3a21" font-size="21" font-family="Arial">&#36807;&#28193;&#39029;&#26631;&#39064;</text>
      <text x="240" y="152" text-anchor="middle" fill="#8b6b4d" font-size="11" font-family="Arial">&#33410;&#28857;&#32467;&#26500;&#20999;&#25442;</text>
      <rect x="182" y="168" width="116" height="4" fill="url(#accent10)"/>
    </g>

    <!-- page 3: cover (center) -->
    <g transform="translate(206,216)">
      <rect width="560" height="314" rx="10" fill="#f7f1e6"/>
      <g clip-path="url(#r10)">
        <image href="https://images.pexels.com/photos/5993559/pexels-photo-5993559.jpeg?auto=compress&amp;cs=tinysrgb&amp;w=1200" x="-30" y="-48" width="640" height="390" preserveAspectRatio="xMidYMid slice" opacity="0.34"/>
      </g>
      <rect x="0" y="0" width="560" height="24" fill="#8b5a2b" fill-opacity="0.88"/>
      <rect x="24" y="58" width="8" height="156" fill="url(#accent10)"/>
      <text x="50" y="108" fill="#4b2e1f" font-size="34" font-family="Arial">&#23553;&#38754;&#26631;&#39064;</text>
      <text x="50" y="136" fill="#6b4b2f" font-size="13" font-family="Arial">&#26262;&#33394;&#32440;&#32441;&#39118;&#26684;</text>
      <rect x="50" y="150" width="292" height="4" fill="url(#accent10)"/>
      <text x="410" y="272" fill="#6b4b2f" font-size="12" font-family="Arial">&#27719;&#25253;&#20154;&#65306;XXX</text>
      <text x="410" y="292" fill="#8b6b4d" font-size="10" font-family="Arial">2026-02-25</text>
    </g>

    <!-- page 4: content -->
    <g transform="translate(712,252)">
      <rect width="360" height="220" rx="8" fill="#f7f1e6"/>
      <g clip-path="url(#r10)">
        <image href="https://images.pexels.com/photos/4252168/pexels-photo-4252168.jpeg?auto=compress&amp;cs=tinysrgb&amp;w=1200" x="-18" y="-40" width="420" height="300" preserveAspectRatio="xMidYMid slice" opacity="0.25"/>
      </g>
      <rect x="0" y="0" width="360" height="18" fill="#8b5a2b" fill-opacity="0.88"/>
      <text x="18" y="46" fill="#4b2e1f" font-size="16" font-family="Arial">&#20869;&#23481;&#39029;&#26631;&#39064;</text>
      <rect x="18" y="54" width="140" height="3" fill="url(#accent10)"/>
      <rect x="22" y="74" width="150" height="62" rx="4" fill="#fffaf0" fill-opacity="0.90"/>
      <rect x="186" y="74" width="150" height="62" rx="4" fill="#fffaf0" fill-opacity="0.90"/>
      <text x="97" y="111" text-anchor="middle" fill="#6b4b2f" font-size="11" font-family="Arial">&#24314;&#35758; A</text>
      <text x="261" y="111" text-anchor="middle" fill="#6b4b2f" font-size="11" font-family="Arial">&#24314;&#35758; B</text>
    </g>

    <!-- page 5: end -->
    <g transform="translate(296,324)">
      <rect width="500" height="286" rx="8" fill="#f7f1e6"/>
      <g clip-path="url(#r10)">
        <image href="https://images.pexels.com/photos/4252168/pexels-photo-4252168.jpeg?auto=compress&amp;cs=tinysrgb&amp;w=1200" x="-20" y="-82" width="560" height="400" preserveAspectRatio="xMidYMid slice" opacity="0.30"/>
      </g>
      <rect x="0" y="0" width="500" height="20" fill="#8b5a2b" fill-opacity="0.88"/>
      <rect x="0" y="20" width="500" height="266" fill="#fffaf0" fill-opacity="0.66"/>
      <text x="250" y="154" text-anchor="middle" fill="#4b2e1f" font-size="46" font-family="Arial">&#24863;&#35874;&#35266;&#30475;</text>
      <rect x="172" y="170" width="156" height="4" fill="url(#accent10)"/>
      <text x="250" y="202" text-anchor="middle" fill="#6b4b2f" font-size="13" font-family="Arial">&#27719;&#25253;&#20154;&#65306;XXX</text>
    </g>
  </g>
</svg>
